<svg xmlns="http://www.w3.org/2000/svg" width="16" height="16" viewBox="0 0 16 16">
  <g id="Candidate_match" data-name="Candidate match" transform="translate(18929 19391)">
    <rect id="Bounds" width="16" height="16" transform="translate(-18929 -19391)" fill="none"/>
    <g id="candidate" transform="translate(-18927 -19389)">
      <path id="Path_30090" data-name="Path 30090" d="M10.519,1.482a5.059,5.059,0,0,0-7.394,6.9L.1,11.4a.352.352,0,1,0,.5.5L3.622,8.876A5.059,5.059,0,0,0,12,5.059a5.026,5.026,0,0,0-1.482-3.577ZM6.942,9.414A4.355,4.355,0,1,1,11.3,5.059,4.36,4.36,0,0,1,6.942,9.414Z" transform="translate(0)" fill="#000b58"/>
      <path id="Path_30091" data-name="Path 30091" d="M148.121,64.267a3.521,3.521,0,1,0,3.521,3.521A3.525,3.525,0,0,0,148.121,64.267ZM147.35,70.5V69.468a.771.771,0,0,1,1.543,0v1.037a2.832,2.832,0,0,1-1.543,0Zm0-3.277a.771.771,0,1,1,.771.771A.772.772,0,0,1,147.35,67.228Zm2.239,2.971v-.732a1.465,1.465,0,0,0-.52-1.12,1.468,1.468,0,1,0-1.9,0,1.465,1.465,0,0,0-.52,1.12V70.2a2.824,2.824,0,1,1,2.936,0Z" transform="translate(-141.134 -62.774)" fill="#000b58"/>
    </g>
  </g>
</svg>
