<svg xmlns="http://www.w3.org/2000/svg" width="16" height="16" viewBox="0 0 16 16">
  <g id="Unpublished" transform="translate(18898 19496)">
    <rect id="Bounds" width="16" height="16" transform="translate(-18898 -19496)" fill="none"/>
    <g id="link" transform="translate(-18896 -19494.172)">
      <path id="Path_30085" data-name="Path 30085" d="M175.2,7.661a.534.534,0,0,1-.377-.911L175.9,5.671a2.559,2.559,0,0,0,.762-1.833,2.6,2.6,0,0,0-2.595-2.595,2.559,2.559,0,0,0-1.831.76l-1.08,1.08a.534.534,0,0,1-.755-.755l1.078-1.079A3.62,3.62,0,0,1,174.064.176a3.666,3.666,0,0,1,3.663,3.663,3.617,3.617,0,0,1-1.077,2.59L175.573,7.5a.531.531,0,0,1-.377.156Zm0,0" transform="translate(-165.726 -0.004)" fill="#888"/>
      <path id="Path_30086" data-name="Path 30086" d="M3.667,177.9A3.666,3.666,0,0,1,0,174.236a3.617,3.617,0,0,1,1.077-2.59l1.077-1.076a.534.534,0,0,1,.755.755L1.834,172.4a2.557,2.557,0,0,0-.762,1.833,2.6,2.6,0,0,0,2.595,2.595,2.559,2.559,0,0,0,1.831-.76l1.08-1.08a.534.534,0,0,1,.755.755l-1.078,1.079A3.62,3.62,0,0,1,3.667,177.9Zm0,0" transform="translate(-0.004 -165.727)" fill="#888"/>
      <path id="Path_30087" data-name="Path 30087" d="M259.1,130.243a.534.534,0,0,1-.377-.911l1-1a.534.534,0,0,1,.755.755l-1,1A.532.532,0,0,1,259.1,130.243Zm0,0" transform="translate(-251.92 -124.712)" fill="#888"/>
      <path id="Path_30088" data-name="Path 30088" d="M128.534,260.805a.534.534,0,0,1-.377-.911l1-1a.534.534,0,0,1,.755.755l-1,1A.532.532,0,0,1,128.534,260.805Zm0,0" transform="translate(-124.713 -251.921)" fill="#888"/>
      <path id="Path_30089" data-name="Path 30089" d="M11.455,12.172a.544.544,0,0,1-.386-.16L.16,1.1A.545.545,0,0,1,.931.332L11.84,11.241a.545.545,0,0,1-.386.931Zm0,0" transform="translate(0)" fill="#888"/>
    </g>
  </g>
</svg>
